<?xml version="1.0" standalone="no"?>
<!DOCTYPE svg PUBLIC "-//W3C//DTD SVG 20010904//EN"
 "http://www.w3.org/TR/2001/REC-SVG-20010904/DTD/svg10.dtd">
<svg version="1.0" xmlns="http://www.w3.org/2000/svg"
 width="200.000000pt" height="200.000000pt" viewBox="0 0 200.000000 200.000000"
 preserveAspectRatio="xMidYMid meet">

<g transform="translate(0.000000,200.000000) scale(0.100000,-0.100000)"
fill="#000000" stroke="none">
<path d="M1456 1512 c-6 -18 -14 -23 -32 -19 -13 2 -24 0 -24 -4 0 -5 5 -9 10
-9 14 0 13 -33 -2 -48 -14 -14 1 -16 22 -2 10 6 20 4 32 -7 17 -15 18 -15 18
6 0 12 7 24 15 27 21 9 19 24 -4 24 -14 0 -21 8 -23 28 -3 27 -4 27 -12 4z"/>
<path d="M561 1386 c-87 -92 -109 -152 -76 -216 20 -39 59 -65 129 -85 78 -23
238 -16 356 14 122 31 297 120 371 189 78 72 96 106 26 49 -239 -195 -664
-270 -794 -140 -55 56 -44 128 34 214 59 65 21 44 -46 -25z"/>
<path d="M952 524 c9 -3 19 -13 22 -22 3 -12 4 -12 3 3 -1 12 -10 21 -22 22
-15 1 -15 0 -3 -3z"/>
<path d="M994 515 c-8 -20 2 -45 18 -44 10 0 10 2 1 6 -7 2 -13 13 -13 23 0
10 6 21 13 23 9 4 9 6 -1 6 -7 1 -15 -6 -18 -14z"/>
</g>
</svg>
